<?xml version="1.0" standalone="no"?>
<!DOCTYPE svg PUBLIC "-//W3C//DTD SVG 20010904//EN"
 "http://www.w3.org/TR/2001/REC-SVG-20010904/DTD/svg10.dtd">
<svg version="1.0" xmlns="http://www.w3.org/2000/svg"
 width="512.000000pt" height="512.000000pt" viewBox="0 0 512.000000 512.000000"
 preserveAspectRatio="xMidYMid meet">

<g transform="translate(0.000000,512.000000) scale(0.100000,-0.100000)"
fill="#000000" stroke="none">
<path d="M0 2560 l0 -2560 2560 0 2560 0 0 2560 0 2560 -2560 0 -2560 0 0
-2560z m2725 2130 c801 -73 1496 -578 1808 -1312 499 -1172 -112 -2519 -1323
-2918 -881 -290 -1856 18 -2414 764 -511 681 -575 1596 -166 2345 411 754
1244 1199 2095 1121z"/>
<path d="M2340 4090 c-607 -83 -1102 -490 -1298 -1065 -61 -178 -76 -278 -76
-500 0 -170 3 -216 22 -305 68 -312 202 -565 421 -794 217 -225 497 -378 821
-447 89 -20 135 -23 305 -23 170 0 216 3 305 23 567 121 1004 506 1189 1049
60 174 75 276 75 497 0 221 -15 323 -75 497 -184 539 -626 930 -1184 1048
-114 24 -395 35 -505 20z"/>
</g>
</svg>
